<?xml version="1.0" standalone="no"?><!DOCTYPE svg PUBLIC "-//W3C//DTD SVG 1.1//EN" "http://www.w3.org/Graphics/SVG/1.1/DTD/svg11.dtd"><svg t="1635955124612" class="icon" viewBox="0 0 1024 1024" version="1.1" xmlns="http://www.w3.org/2000/svg" p-id="13464" xmlns:xlink="http://www.w3.org/1999/xlink" width="200" height="200"><defs><style type="text/css"></style></defs><path d="M116.082 135.948h788.351s35.299 35.299 0 101.976H116.082c0-0.001-27.456-31.378 0-101.976zM512 264.586H143.019V398.08s37.498 217.489 242.988 277.487c0 0 0 56.996 59.997 94.494v52.498s-181.491 62.996-197.99 100.494l-1.5 33H512V570.57s-7.5-92.995-97.495-103.494c0 0 92.996-16.499 97.495-101.995V264.586z m0 100.496c4.5 85.496 97.495 101.995 97.495 101.995C519.5 477.576 512 570.57 512 570.57v385.482h265.486l-1.5-33c-16.498-37.498-197.99-100.494-197.99-100.494V770.06c59.997-37.498 59.998-94.494 59.998-94.494C843.483 615.568 880.981 398.08 880.981 398.08V264.586H512v100.496z" p-id="13465" fill="#f76b0c"></path></svg>