<?xml version="1.0" standalone="no"?><!DOCTYPE svg PUBLIC "-//W3C//DTD SVG 1.1//EN" "http://www.w3.org/Graphics/SVG/1.1/DTD/svg11.dtd"><svg t="1635954887705" class="icon" viewBox="0 0 1024 1024" version="1.1" xmlns="http://www.w3.org/2000/svg" p-id="8664" xmlns:xlink="http://www.w3.org/1999/xlink" width="200" height="200"><defs><style type="text/css"></style></defs><path d="M467.489 152.357S368.881 131.814 156.6 257.812l-10.957 236.933 86.282 26.022v32.869l-72.586-8.217 1.369 215.021s215.021 101.347 423.193 112.304c0 0 90.392 5.479 162.979-52.043l131.477-101.348v-490.3c-0.001 0-98.609-50.674-410.868-76.696zM217.467 275.129s267.637 24.646 438.234 61.811c0-0.001-198.031-25.479-438.234-61.811z m80.197 477.094l49.304-139.694 6.163-26.021-82.858-24.654v-21.912l165.716-157.499-35.608 167.085L512 589.246 297.664 752.223z m545.085-427.302c-73.957 2.739-123.261 57.522-123.261 57.522l-13.696 236.933c-193.106-6.848-178.042-5.021-177.129-13.695 0.914-8.675 12.783-15.065 12.783-15.065l143.949-10.961v-235.56c50.821-49.304 157.354-62.999 157.354-62.999v43.825z" p-id="8665" fill="#0e932e"></path></svg>