<?xml version="1.0" standalone="no"?><!DOCTYPE svg PUBLIC "-//W3C//DTD SVG 1.1//EN" "http://www.w3.org/Graphics/SVG/1.1/DTD/svg11.dtd"><svg t="1635954954011" class="icon" viewBox="0 0 1024 1024" version="1.1" xmlns="http://www.w3.org/2000/svg" p-id="9986" width="200" height="200" xmlns:xlink="http://www.w3.org/1999/xlink"><defs><style type="text/css"></style></defs><path d="M866.779 132.668c-30.434 49.275-131.888 97.104-211.597 230.438-68.121 136.234-63.77 276.817-63.77 276.817-66.669-39.133-126.089 0-126.089 0-18.839-173.918-30.435-165.221-37.683-205.801-7.246-40.58-56.523-105.799-56.523-105.799-118.841-28.986-168.115 91.306-168.115 91.306-1.45 105.799 76.81 211.597 76.81 211.597l23.191-66.668 123.188 162.323c92.755-121.743 207.249-12.607 207.249-12.607 17.39-25.65 143.482-193.193 143.482-193.193 144.928-250.728 89.857-388.413 89.857-388.413zM318.944 521.081l31.887-140.583c55.837 50.226 75.362 291.311 75.362 291.311L318.944 521.081z m465.227-92.755c-72.465 156.526-162.325 217.395-162.325 217.395 15.943-197.103 76.813-278.266 76.813-278.266 23.189-44.929 143.482-156.524 143.482-156.524-4.347 131.886-57.97 217.395-57.97 217.395z" p-id="9987" fill="#0061b0"></path><path d="M255 847.869s123.454-77.654 308.634-85.62c185.182-7.965 322.138 81.639 325.342 85.62 3.205 3.983-133.408-42.315-316.987-43.061-183.579-0.743-243.315 19.169-316.989 43.061z" p-id="9988" fill="#0061b0"></path></svg>