<?xml version="1.0" standalone="no"?><!DOCTYPE svg PUBLIC "-//W3C//DTD SVG 1.1//EN" "http://www.w3.org/Graphics/SVG/1.1/DTD/svg11.dtd"><svg t="1635954834891" class="icon" viewBox="0 0 1024 1024" version="1.1" xmlns="http://www.w3.org/2000/svg" p-id="7586" width="200" height="200" xmlns:xlink="http://www.w3.org/1999/xlink"><defs><style type="text/css"></style></defs><path d="M315.408 100.271L172.733 425.436h301.94zM139.553 725.716l132.721 145.993 152.629-39.815-94.564-121.111zM653.846 262.853L340.293 108.565l164.242 295.304zM804.816 458.616C486.285 481.843 496.24 597.974 496.24 597.974c-1.659 117.79 77.972 150.97 77.972 150.97-66.36-155.945-11.61-157.633-11.61-157.633 240.557-5.004 247.191 209.061 247.191 209.061-8.294 18.248-71.339 21.568-71.339 21.568l-14.931 11.613c152.628 18.251 160.925-49.771 160.925-49.771V561.476c0-53.088-79.632-102.86-79.632-102.86z" p-id="7587" fill="#d3217b"></path><path d="M539.854 517.869c26.865-18.39 67.499-36.703 128.921-50.41V291.056l-149.308 150.97 20.387 75.843zM516.691 536.718l-23.77-78.102H189.323l227.285 305.259h105.01c13.438-2.971 25.73-3.56 33.282-3.56 3.231 0 5.713 0.101 7.144 0.184l9.831-1.747-1.49-0.619c-3.504-1.461-85.701-37.127-84.103-160.004-0.161-4.267 0.164-26.766 22.49-52.937a131.608 131.608 0 0 1 7.919-8.474zM568.806 707.947l-11.952-39.269c2.69 11.135 6.556 24.133 11.952 39.269z" p-id="7588" fill="#d3217b"></path><path d="M703.615 669.311s-31.867-34.842-112.984 96.222l-28.029 4.978s-119.45-9.952-94.565 97.883c0 0 8.293 61.382 86.268 53.088 0 0 43.136 32.694 157.607-151.212 0-0.001 14.929-99.301-8.297-100.959z" p-id="7589" fill="#d3217b"></path><path d="M790.716 794.42C775.784 610.542 562.83 611.245 562.83 611.245c-13.875 7.47 21.339 121.934 21.339 121.934 2.62 3.896 5.393 7.534 8.266 10.992 38.759-59.087 72.001-89.013 98.935-89.013 8.006 0 13.464 2.678 16.584 4.863 3.014 0.864 6.45 2.723 9.495 6.525 15.72 19.634 7.271 85.485 4.306 105.201l-0.303 2.035-1.09 1.744a1202.807 1202.807 0 0 1-15.332 24.011c12.919 1.569 22.455 1.726 25.962 2.075 12.442 1.245 59.724-7.192 59.724-7.192z" p-id="7590" fill="#d3217b"></path></svg>