<?xml version="1.0" standalone="no"?><!DOCTYPE svg PUBLIC "-//W3C//DTD SVG 1.1//EN" "http://www.w3.org/Graphics/SVG/1.1/DTD/svg11.dtd"><svg t="1635954914375" class="icon" viewBox="0 0 1024 1024" version="1.1" xmlns="http://www.w3.org/2000/svg" p-id="9140" xmlns:xlink="http://www.w3.org/1999/xlink" width="200" height="200"><defs><style type="text/css"></style></defs><path d="M884.454 639.138C872.23 474.73 666.409 344.705 666.409 344.705 606.373 384.207 512 384.207 512 384.207s-94.372 0-154.409-39.502c0 0-205.821 130.026-218.046 294.433-4.774 64.195 37.625 283.06 372.455 286.819 334.831-3.759 377.229-222.624 372.454-286.819zM512 769.803c-3.521-77.21-130.268-165.983-130.268-165.983C427.82 596.443 509.443 477.63 512 472.784c2.557 4.847 84.181 123.66 130.269 131.036 0-0.001-126.748 88.773-130.269 165.983zM454.62 325.184c13.775 4.008 57.38 3.763 57.38 3.763s43.492 1.439 57.38-3.763c53.268-19.954 164.388-104.528 165.065-156.6 0.496-38.092-77.594-69.835-107.927-70.541H397.482c-30.333 0.706-108.423 32.448-107.927 70.541 0.678 52.072 110.448 140.706 165.065 156.6z m-21.868-186.228L512 137.545l79.248 1.411s65.374 7.196 62.076 29.627c-3.527 23.983-61.371 31.038-63.486 31.038H512h-77.837c-2.116 0-59.959-7.054-63.486-31.038-3.299-22.431 62.075-29.627 62.075-29.627z" p-id="9141" fill="#e0620d"></path></svg>