<?xml version="1.0" standalone="no"?><!DOCTYPE svg PUBLIC "-//W3C//DTD SVG 1.1//EN" "http://www.w3.org/Graphics/SVG/1.1/DTD/svg11.dtd"><svg t="1635954783077" class="icon" viewBox="0 0 1024 1024" version="1.1" xmlns="http://www.w3.org/2000/svg" p-id="5446" xmlns:xlink="http://www.w3.org/1999/xlink" width="200" height="200"><defs><style type="text/css"></style></defs><path d="M241.74 301.69c-29.4-4.46-67.01-10.73-92.61-13.77 0 0-16.71-1.03-18.82 0 0 0 95.28 15.26 95.3 15.27 11.54 3.19 69.41 16.72 71.61 19.56 0 0-30.32-8.21-41.29-10.76l-43.32-8.21c6.4 2.86 52.24 13.99 71.67 20.71 21.67 6.39 60.8 24.95 75.09 35.75l4.19 2.74s7.7 4.43 9.7 7.7c0.09 1.14-4.57 11.6-6.42 14.67-3.68 6.1-7.34 10.44-7.34 10.44s3.04-7.5 4.3-10.82c0.9-3.2 0.93-4.28 1.67-10.4 0 0-2.55 15.13-13.45 31.56-10.58 16.66-26.74 45.59-49.27 76.43-15.96 21.21-36.35 46.92-47.85 52.11 0 0-1.98 10.89 6.21 10.84 1.86-0.01 5.69-1.24 10.32-0.63 9.49 1.25 20.84 4.84 20.84 4.84 12.63-1.58 11.11-6.95 17.85-8.21 17.69 0.32 94.85-4.63 124.86-38.74 23.95-28.42 24.39-43.37 23.95-55.69 0-31.69-34.27-72.2-41-76.75 0 0-39.58-33.27-66.69-41.27-40.74-22.11-114.49-34.27-114.49-34.27 8.26 2.26 35.65 8.61 56.33 15.84s37.53 14.63 37.53 14.63-41.56-13.48-88.87-23.57M400.03 485.4c-10.68 14.37-28.37 30-49.22 37.74-15.48 7.26-33.22 9.32-33.22 9.32s4.3-7.63 14.42-25.58c26.21-43.27 41.79-111.8 41.79-111.8 0.76-0.71 4.32-20.19 4.32-20.19s15.57 13.08 23.63 26.61c5.9 9.9 11.79 28.01 12.21 39.16 0.45 11.49-8.54 37.81-13.93 44.74zM458.93 447.08" fill="#d81e06" p-id="5447"></path><path d="M451.94 478.41v1.15s22.2-25.27 22.2-28.27-1.25 0.65-8.21 1.42c0 0 8.69-6.95 13.26-7.74 4.58-0.79 14.53 0 14.53 0s10.26 3.63 14.69 16.11c4.42 12.48 9.47 25.42 11.84 29.06s28.27-22.42 31.58-29.85c3.32-7.42 11.69-18 16.9-22.11 0 0-6.47 13.42-6 14.37 0.47 0.95 17.53-17.69 18.79-21.63 0 0 2.53 11.21-2.53 22.42l6.63-11.37s-4.74 21.32-9.79 27.79c-5.05 6.47-10.11 16.42-10.11 16.42l10.42-1.11s18.48-27.79 27.48-34.11 42.32-25.11 67.27-32.06c24.95-6.95 71.06-14.53 95.54-15.95 24.48-1.42 95.7-8.05 108.17-6.63l-44.22 4.74s-61.43 5.37-69.64 7.9-23.37 3.16-23.37 3.16l34.58-3 41.06-4.74s57.01-4.26 60.01-4.26 21.79-0.32 24 0.32c2.21 0.63-39.32 3.63-39.32 3.63s-38.53 3.47-41.06 4.26c0 0 18.16-0.63 19.74-0.63s28.9-1.42 30.64-0.32c0 0-26.37 2.84-31.9 4.11-5.53 1.26-10.58-0.63-57.96 7.9-47.37 8.53-63.48 16.58-73.75 21.32-10.26 4.74-49.27 18.16-70.75 41.53l86.54-4.58 104.22-4.26s-67.27 7.42-73.9 8.37c-6.63 0.95-54.95 5.05-57.17 6.32l61.9-1.58s23.37-1.58 24.95-0.95c0 0-30.16 3.53-36.32 4.92 0 0-14.69 0.6-18 1.71 0 0-0.95 0.79-0.47 1.74 0.47 0.95 52.74-1.74 52.74-1.74l48.8-1.89s-44.22 4.11-47.06 4.74c-2.84 0.63-44.85 3.47-46.43 4.26s-75.33 5.84-77.22 6.63l-0.16 1.26h54.32s-51.95 4.26-54.95 4.58c-3 0.32-46.27 2.37-50.53 3.79-4.26 1.42-39.48 52.27-43.06 59.85-3.58 7.58-18.11 35.16-22.32 45.48-4.21 10.32-13.26 28.21-16.21 37.48 0 0 13.48-42.11 16-46.74l-21.48 46.74-23.58 52.22s14.32-43.58 15.37-44.85c0 0-34.11 67.8-35.58 70.75S510.57 631 512.67 627.63c2.11-3.37-21.48 40.01-24.42 42.95s41.9-95.59 44.01-98.96c2.11-3.37 22.74-50.32 25.69-52.64 0 0-3.16 0.42-5.47-2.53 0 0-1.47-1.26 1.05-4.63 2.53-3.37 4.84-9.69 4.84-14.74 0 0-12 15.79-20.63 22.74s-13.48 9.47-17.27 10.74 10.53-7.79 12.84-12.42-6.95 7.79-18.95 11.37c-12 3.58-15.37 1.9-21.48-2.32-6.11-4.21-13.05-29.06-10.74-42.11 0 0-10.32 7.79-16.21 17.05-5.9 9.26-6.95 7.79-8.21 13.69-1.26 5.9 0.84-8.21 7.37-19.16s-16.21 19.58-17.27 23.58c-1.05 4-10.11 16-10.32 20-0.21 4-2.74-13.9 3.37-26.53s11.79-18.53 12-21.48c0.21-2.95-8.84 8.84-12.21 14.95-3.37 6.11-4.58 7.11-4.58 7.11s2.17-11.51 4.32-18.25" fill="#d81e06" p-id="5448"></path></svg>