<?xml version="1.0" standalone="no"?><!DOCTYPE svg PUBLIC "-//W3C//DTD SVG 1.1//EN" "http://www.w3.org/Graphics/SVG/1.1/DTD/svg11.dtd"><svg t="1635956746543" class="icon" viewBox="0 0 1024 1024" version="1.1" xmlns="http://www.w3.org/2000/svg" p-id="1491" xmlns:xlink="http://www.w3.org/1999/xlink" width="200" height="200"><defs><style type="text/css"></style></defs><path d="M1023.770917 384.248173v-68.037584h-45.052945V226.715585a12.141387 12.141387 0 0 0-12.065026-12.141387H57.347054a12.217748 12.217748 0 0 0-12.065026 12.141387v89.495004H0.381805v68.037584h44.900223v260.543475H0.381805v68.037584h44.900223v83.997017a12.217748 12.217748 0 0 0 3.512603 8.552424 11.683221 11.683221 0 0 0 8.552423 3.512602h909.305892a12.217748 12.217748 0 0 0 12.065026-12.065026v-83.997017h45.052945v-68.037584h-45.052945V384.248173zM101.636391 755.973154V269.24862h820.727218V755.973154z" p-id="1492" fill="#d81e06"></path><path d="M451.980313 638.148248h-44.442058v-305.443699h-54.139896v358.514541h152.72185V332.857271h-54.216257z m-227.250112-305.443699h-54.216256v358.514541h54.216256V542.926174H307.734526V332.857271z m31.842506 157.303505h-31.842506V384.248173h31.842506z m511.618195-157.150783h-49.55824v358.361819h146.460254V478.401193h-67.579419v52.154512h14.584937v107.592543h-39.325876v-251.991052h39.325876v24.893662h52.994482V332.857271z m-138.060552 0H544.987919v358.361819h136.075168V517.497987H664.340045v-39.020433h16.799403V332.857271z m-31.002535 198.538404h31.002535v106.905294h-30.849813z m0-53.452647V386.004474h31.002535v92.396719z" p-id="1493" fill="#d81e06"></path></svg>