<?xml version="1.0" standalone="no"?><!DOCTYPE svg PUBLIC "-//W3C//DTD SVG 1.1//EN" "http://www.w3.org/Graphics/SVG/1.1/DTD/svg11.dtd"><svg t="1635954808260" class="icon" viewBox="0 0 1024 1024" version="1.1" xmlns="http://www.w3.org/2000/svg" p-id="6514" xmlns:xlink="http://www.w3.org/1999/xlink" width="200" height="200"><defs><style type="text/css"></style></defs><path d="M405.76 518.24c0-14.08-11.36-25.44-25.44-25.44h-85.12c-14.08 0-25.44 11.36-25.44 25.44v25.44c0 14.08 11.36 25.44 25.44 25.44h76.64v25.6h-101.92v0.16c0 14.08 11.36 25.44 25.44 25.44h85.12c14.08 0 25.44-11.36 25.44-25.44V568.8a25.44 25.44 0 0 0-25.44-25.12h-76.64v-25.44h101.92zM244.32 518.24c0-14.08-11.36-25.44-25.44-25.44H133.76c-14.08 0-25.44 11.36-25.44 25.44v76.48c0 14.08 11.36 25.44 25.44 25.44h85.28c14.08 0 25.44-11.36 25.44-25.44v-0.16H142.4v-76.64h101.92zM640.32 402.4c2.24-0.16 4.32-1.44 6.56-2.4 4.96-1.12 10.08-1.76 15.36-1.76 7.36 0 14.72 0.64 22.24 0.8 0.96 0 2.08-1.28 3.04-2.08-0.96-0.8-1.76-1.76-2.88-2.24-0.64-0.32-1.44 0-2.24 0h-27.68c-0.48-1.44-0.96-4.32-1.6-4.32-4.48-0.32-3.2-3.52-3.52-5.92-0.16-1.76-0.32-3.68-0.32-5.44h-1.6c-0.16 4-0.32 7.84-0.48 10.88-3.36-0.8-6.24-1.92-9.12-1.92-19.52-0.16-39.04-0.16-58.4 0-5.44 0-9.28-2.08-10.72-8.96-1.76 4-0.8 8.8-6.56 8.8-3.68 0-7.2 1.6-10.72 2.4-1.28-5.6-3.04-10.24 4-11.84 1.44-0.32 3.2-3.52 3.04-5.12-0.48-6.08-0.8-12.32-2.88-18.08-0.8-2.56-5.28-3.84-8.16-5.76l-1.44-0.96c-12.48-7.36-27.36-3.36-34.08 9.44-3.68 6.88-4.64 14.08-2.56 21.6 0.48 1.44 0.16 3.04 0.16 4.48-1.28-0.16-2.56-0.48-3.84-0.64-2.24-0.32-4.64-0.96-6.88-0.64-8.16 1.12-13.76 6.08-17.92 12.96-6.4 10.56-7.84 22.08-6.88 34.24 0.64 7.68 0.64 7.84-7.2 8.32-4.16 0.32-6.08 1.6-6.08 6.08 0 5.6-0.64 11.2-1.28 16.8-1.28 10.72-1.28 10.72 9.12 14.56-5.6 2.08-7.68 6.08-6.88 11.52 0.64 5.12 1.6 10.08 1.76 15.2 0.16 4.32 3.04 9.44-3.2 12.32-0.8 0.32-1.28 2.24-1.28 3.52 0.16 5.44 0.64 10.88 0.96 16.32 0.16 2.56 0.96 5.28 0.64 7.84-0.96 8.8-2.88 17.6-2.88 26.56 0 4.32 0 8.16-2.4 11.84-1.92 3.04-4 6.08-5.6 9.28-2.72 5.44-5.44 11.04-7.68 16.8-1.76 4.32-3.2 8.64-4.48 13.12-1.12 4.16-1.92 8.32-2.4 12.64-0.48 4.64-0.16 9.6-0.8 14.24-0.8 4.96-2.56 9.92-3.68 14.88-0.8 3.36-1.44 6.72-1.6 10.24-0.48 5.12 1.92 7.84 7.2 7.84 4 0 8 0 12-0.16 5.92-0.32 6.72-1.28 5.76-6.88-0.16-1.44-0.96-2.72-1.12-4.16-1.92-11.52-1.44-22.4 8.32-30.72 1.28-1.12 1.92-3.04 2.72-4.64 2.4-5.6 4.8-11.36 7.04-17.12 1.12-3.04 3.2-6.4 2.72-9.28-2.08-11.52 7.52-16.96 11.84-25.12 1.6-2.88 4-5.6 4.48-8.8 2.4-12.32 8.32-22.88 15.36-32.48 2.24 2.4 4.16 6.56 6.56 6.88 4.8 0.64 6.72 3.52 8.96 6.88 3.52 5.44 7.36 10.88 10.88 16.32 2.24 3.36 5.12 5.28 9.12 4.64 4-0.64 5.6 1.92 5.92 4.8 0.32 3.36 0.64 7.52-0.96 10.08-3.2 4.96-2.56 9.76-1.92 14.72 0.8 6.4 1.92 12.96 3.04 19.36 0.64 3.68 1.92 7.2 2.72 10.88 2.24 10.24-1.44 19.68-3.36 29.44-1.12 5.76 0.48 7.52 6.24 7.52 3.36 0 6.88-0.32 10.24 0 9.28 0.64 18.72 1.76 28.16 2.24 1.92 0.16 4.96-1.12 5.6-2.56 1.28-2.88-0.16-5.6-3.52-6.88-1.76-0.64-3.36-1.6-4.96-2.24-13.44-4.96-21.12-22.56-15.84-36 1.12-2.56 1.6-5.6 1.76-8.48 0.48-8.16 0.64-16.16 0.96-24.32 0.32-8.96 3.04-18.08-0.96-26.88-1.44-3.2-3.52-6.08-4.8-9.28-6.24-16.16-12.96-32-24.8-45.12a11.952 11.952 0 0 1-1.76-14.08c8.32 1.44 11.2-0.16 12.32-8.64 1.28-9.12 1.44-18.4 1.6-27.68 0-1.92-1.12-4.8-2.72-5.6-4.96-2.56-4.32-5.92-2.08-10.24 2.24 1.12 4.32 2.56 6.56 3.52 6.56 2.72 12.96 5.44 19.68 8 1.92 0.64 4.48 1.44 6.08 0.64 7.84-3.68 15.2-8.16 16.16-18.08 0.48-4.64 1.6-8.48 7.2-9.6-2.4-8.64-6.08-17.44 4-23.36 2.72-1.6 5.6-4 8.64-4.16 6.56-1.12 13.28-0.48 20-0.8z" fill="#d81e06" p-id="6515"></path><path d="M754.24 518.24c0-14.08-11.36-25.44-25.44-25.44h-85.12c-14.08 0-25.44 11.36-25.44 25.44v76.48c0 14.08 11.36 25.44 25.44 25.44H728.64c14.08 0 25.44-11.36 25.44-25.44V543.68H669.12c0 14.08 19.84 25.44 33.92 25.44h17.12v25.44h-68v-76.64h102.08zM915.68 517.92c-0.16-13.92-11.36-25.12-25.44-25.12h-85.12c-14.08 0-25.44 11.36-25.44 25.44v76.48c0 14.08 11.36 25.44 25.44 25.44h85.12c14.08 0 25.44-11.36 25.44-25.44V517.92z m-34.08 0.64v76.16h-68v-76.64h68v0.48z" fill="#d81e06" p-id="6516"></path></svg>